# xmcd
#
# Track frame offsets:
#	150
#	23542
#	43585
#	55312
#	69712
#	88792
#	116772
#	134345
#	159617
#	180517
#	192600
#	215405
#	231867
#	263060
#
# Disc length: 3798 seconds
#
# Revision: 1
# Processed by: cddbd v1.5.1PL0 Copyright (c) Steve Scherf et al.
# Submitted via: audiograbber 1.83.01
#
DISCID=c90ed40e
DTITLE=Jeff Sigrist - Live And In Colour
DYEAR=1992
DGENRE=Blues
TTITLE0=Down To Louisiana
TTITLE1=Let's Hit, Man
TTITLE2=Maureen
TTITLE3=Scuttle Buttin'
TTITLE4=Jeff Blues
TTITLE5=Sweet Blood
TTITLE6=Coloured Man
TTITLE7=The Thrill Is Gone
TTITLE8=Little Wing
TTITLE9=Bass Solo
TTITLE10=Black Tears
TTITLE11=Harp Feature
TTITLE12=Play The Boogie
TTITLE13=Nugget City
EXTD=
EXTT0=
EXTT1=
EXTT2=
EXTT3=
EXTT4=
EXTT5=
EXTT6=
EXTT7=
EXTT8=
EXTT9=
EXTT10=
EXTT11=
EXTT12=
EXTT13=
PLAYORDER=
